<?xml version="1.0" encoding="utf-8"?>
<!-- Generator: Adobe Illustrator 21.0.2, SVG Export Plug-In . SVG Version: 6.00 Build 0)  -->
<svg version="1.1" id="logo" xmlns="http://www.w3.org/2000/svg" xmlns:xlink="http://www.w3.org/1999/xlink" x="0px" y="0px"
	 viewBox="0 0 849 262.5" style="enable-background:new 0 0 849 262.5;" xml:space="preserve">
<style type="text/css">
	.st0{fill:#CA2026;}
	.st1{fill:#FFFFFF;}
	.st2{fill:#CC0000;}
	.st3{fill:#161B1F;}
	.st4{fill:#4C4C4C;}
</style>
<g>
	<circle class="st0" cx="128.1" cy="126.8" r="122.4"/>
	<path class="st1" d="M186.4,175.4L137.7,58.1c-1.4-3.4-4.2-5.2-7.5-5.2c-3.4,0-6.4,1.8-7.8,5.2L68.9,186.8h18.3l21.2-53l63.2,51
		c2.5,2.1,4.4,3,6.8,3c4.8,0,8.9-3.6,8.9-8.7C187.3,178.2,187,176.8,186.4,175.4z M130.2,79.2l31.7,78.2L114,119.7L130.2,79.2z"/>
</g>
<circle class="st2" cx="128.1" cy="126.8" r="122.4"/>
<path class="st1" d="M186.4,175.4L137.7,58.1c-1.4-3.4-4.2-5.2-7.5-5.2c-3.4,0-6.4,1.8-7.8,5.2L68.9,186.8h18.3l21.2-53l63.2,51
	c2.5,2.1,4.4,3,6.8,3c4.8,0,8.9-3.6,8.9-8.7C187.3,178.2,187,176.8,186.4,175.4z M130.2,79.2l31.7,78.2L114,119.7L130.2,79.2z"/>
<g>
	<path d="M338.8,22.7h-10.2V36h9.9c5.5,0,7.6-2.4,7.6-6.8C346.2,25.4,344.1,22.7,338.8,22.7L338.8,22.7z M345.3,69.8l-9.9-20.5h-6.8
		v20.5H312V9h27.2c14.3,0,23.7,5.4,23.7,19.8c0,9.1-4.3,14.8-10.9,17.8l12.2,23.2H345.3L345.3,69.8z"/>
	<polygon points="376.9,69.8 376.9,9 423.4,9 423.4,23.1 393.5,23.1 393.5,31.2 411.5,31.2 411.5,45.2 393.5,45.2 393.5,55.6 
		424,55.6 424,69.8 376.9,69.8 	"/>
	<path d="M458.6,23.4h-4.2v32h3.6c10.5,0,14.6-4,14.6-16.1C472.7,28.1,469.1,23.4,458.6,23.4L458.6,23.4z M457.1,69.8h-19.7V9h21.3
		C477.8,9,490,16.2,490,39C490,61.9,478.7,69.8,457.1,69.8L457.1,69.8z"/>
	<polygon points="570.2,69.8 570.2,45.8 551.3,45.8 551.3,69.8 534.1,69.8 534.1,9 551.3,9 551.3,31.1 570.2,31.1 570.2,9 587.4,9 
		587.4,69.8 570.2,69.8 	"/>
	<path d="M633.1,41.7c-2.2-7.8-3.1-11.1-3.9-15.2c-0.8,4.1-1.7,7.5-3.9,15.2l-1.1,4h10.1L633.1,41.7L633.1,41.7z M641.6,69.8
		l-3.3-10.7h-18.2l-3.3,10.7h-18.1L620.8,9h17l22.1,60.8H641.6L641.6,69.8z"/>
	<polygon points="694.3,23.7 694.3,69.8 677.4,69.8 677.4,23.7 660.4,23.7 660.4,9 711.3,9 711.3,23.7 694.3,23.7 	"/>
	<path d="M727.4,13.4h-2.3v2.4h2.3c0.8,0,1.4-0.4,1.4-1.2C728.8,13.8,728.2,13.4,727.4,13.4L727.4,13.4z M728.4,17.1l1.8,3.5h-1.7
		l-1.7-3.3h-1.7v3.3h-1.5V12h3.8c1.5,0,2.8,0.8,2.8,2.6C730.2,15.9,729.5,16.8,728.4,17.1L728.4,17.1z M726.7,9.8
		c-3.7,0-6.6,2.8-6.6,6.6c0,3.7,2.8,6.6,6.6,6.6c3.7,0,6.6-2.8,6.6-6.6C733.2,12.7,730.4,9.8,726.7,9.8L726.7,9.8z M726.7,24.2
		c-4.5,0-7.8-3.4-7.8-7.8c0-4.5,3.4-7.8,7.8-7.8c4.5,0,7.8,3.4,7.8,7.8C734.5,20.9,731.1,24.2,726.7,24.2L726.7,24.2z"/>
	<path d="M349.8,116c-2.1-6-4.7-14.2-5.6-18c-0.9,3.6-3.5,11.9-5.7,18.2l-10,29.7h31.4L349.8,116L349.8,116z M370.8,178.4l-7.8-23.2
		h-37.7l-8,23.2h-10.4l31.7-91.2h11.2l31.7,91.2H370.8L370.8,178.4z"/>
	<path d="M456.6,178.4L416.7,116c-2-3.1-5.3-9.1-6.5-11.5v6.3v67.6h-9.8V87.2h9.9l39.5,63.6c2,3.1,5.3,9.1,6.5,11.5V156V87.2h9.8
		v91.2H456.6L456.6,178.4z"/>
	<path d="M515.9,179.9c-12.4,0-23.5-5.3-30.6-12.6l6.8-7.6c6.9,6.6,14.9,10.9,24.2,10.9c12.1,0,19.7-6,19.7-15.6
		c0-8.5-5.1-13.3-21.8-19.3c-19.7-7-26.3-13.4-26.3-26.6c0-14.6,11.5-23.3,28.5-23.3c12.2,0,20.1,3.6,27.8,9.8l-6.5,8
		C531,98,524.9,95,515.8,95c-12.5,0-17.7,6.3-17.7,13.4c0,7.6,3.4,11.9,21.6,18.4c20.2,7.3,26.5,14.1,26.5,27.6
		C546.1,168.8,534.9,179.9,515.9,179.9L515.9,179.9z"/>
	<polygon points="567.9,178.4 567.9,87.2 578.1,87.2 578.1,178.4 567.9,178.4 	"/>
	<path d="M635.5,134h-22.7v35.2h23.2c13.7,0,18.9-6.8,18.9-17.2C655,140.5,647.4,134,635.5,134L635.5,134z M635.7,96.5h-22.8v28.4
		h22c11.3,0,15.8-6.5,15.8-14.5C650.7,102.1,645.8,96.5,635.7,96.5L635.7,96.5z M635.4,178.4h-32.7V87.2h33.4
		c14.5,0,24.8,7.2,24.8,22.8c0,10-5.5,15.9-13.2,18.6c8.3,2.2,17.5,8.1,17.5,22.8C665.1,169.4,654.6,178.4,635.4,178.4L635.4,178.4z
		"/>
	<polygon points="684.3,178.4 684.3,87.2 694.5,87.2 694.5,169.2 739.6,169.2 739.6,178.4 684.3,178.4 	"/>
	<polygon points="759.3,178.4 759.3,87.2 814.4,87.2 814.4,96.5 769.4,96.5 769.4,125.1 795.5,125.1 795.5,134.4 769.4,134.4 
		769.4,169.2 816.3,169.2 816.3,178.4 759.3,178.4 	"/>
	<path d="M833.6,91.8h-2.3v2.4h2.3c0.8,0,1.4-0.4,1.4-1.2C835,92.2,834.4,91.8,833.6,91.8L833.6,91.8z M834.6,95.5l1.8,3.5h-1.7
		l-1.7-3.3h-1.7v3.3h-1.5v-8.6h3.8c1.5,0,2.8,0.8,2.8,2.6C836.4,94.3,835.7,95.1,834.6,95.5L834.6,95.5z M832.9,88.2
		c-3.7,0-6.6,2.8-6.6,6.6c0,3.7,2.8,6.6,6.6,6.6c3.7,0,6.6-2.8,6.6-6.6C839.4,91.1,836.6,88.2,832.9,88.2L832.9,88.2z M832.9,102.6
		c-4.5,0-7.8-3.4-7.8-7.8c0-4.5,3.4-7.8,7.8-7.8c4.5,0,7.8,3.4,7.8,7.8C840.7,99.2,837.3,102.6,832.9,102.6L832.9,102.6z"/>
	<path d="M332.6,216.2c-1.1-3.3-2.9-8.5-3.5-10.5c-0.5,2-2.2,7.2-3.3,10.6l-3.6,10.4h14.1L332.6,216.2L332.6,216.2z M342.1,243.6
		l-3.8-10.8H320l-3.8,10.8h-7.1l16.4-45.6h7.2l16.6,45.6H342.1L342.1,243.6z"/>
	<path d="M377,243.6v-3.3c-1.7,2.5-5.1,4-8.6,4c-8,0-12.2-5.2-12.2-15.3v-19.6h6.7v19.4c0,6.9,2.6,9.4,7,9.4c4.5,0,7-3.2,7-8.7v-20
		h6.7v34.2H377L377,243.6z"/>
	<path d="M410,242.8c-1.6,0.9-3.9,1.6-6.6,1.6c-4.8,0-7.7-2.9-7.7-9.1v-19.8h-4.9v-6.1h4.9v-9.8l6.6-3.5v13.3h8.5v6.1h-8.5v18.6
		c0,3.2,1,4.1,3.5,4.1c1.8,0,3.7-0.7,5-1.4L410,242.8L410,242.8z"/>
	<path d="M432,215.1c-5.1,0-8.2,4.5-8.2,11.3c0,7.5,3.5,11.6,8.5,11.6c5.1,0,8.4-5.2,8.4-11.4C440.7,219.6,437.4,215.1,432,215.1
		L432,215.1z M432,244.3c-8.6,0-15.1-7.1-15.1-17.8c0-11.2,6.7-17.9,15.3-17.9c8.7,0,15.3,7,15.3,17.7
		C447.5,237.7,440.8,244.3,432,244.3L432,244.3z"/>
	<path d="M495.5,243.6v-19.4c0-6.9-2.2-9.4-6.6-9.4c-4.5,0-6.6,3.2-6.6,8.7v20h-6.7v-19.4c0-6.9-2.1-9.4-6.6-9.4
		c-4.5,0-6.6,3.2-6.6,8.7v20h-6.7v-34.2h6.7v3.3c1.7-2.5,4.6-4,8.1-4c4.6,0,7.6,1.8,9.4,5c2.5-3.1,5.1-5,10.5-5
		c8,0,11.7,5.2,11.7,15.3v19.6H495.5L495.5,243.6z"/>
	<path d="M531.5,229c-1.8-0.9-4.2-1.5-7.8-1.5c-4.3,0-7,2-7,5.1c0,3.4,2.2,5.7,6.6,5.7c3.6,0,6.7-2.2,8.3-4.4V229L531.5,229z
		 M531.5,243.6v-3.4c-2.3,2.3-5.7,4.1-9.4,4.1c-5.5,0-11.9-3.1-11.9-11.5c0-7.6,5.9-11.1,13.6-11.1c3.2,0,5.7,0.5,7.6,1.3v-2.5
		c0-3.7-2.3-5.8-6.5-5.8c-3.5,0-6.3,0.7-8.9,2.1l-2.6-5.1c3.3-2,6.9-3.1,11.7-3.1c7.6,0,12.8,3.7,12.8,11.5v23.5H531.5L531.5,243.6z
		"/>
	<path d="M564.1,242.8c-1.6,0.9-3.9,1.6-6.6,1.6c-4.8,0-7.7-2.9-7.7-9.1v-19.8h-4.9v-6.1h4.9v-9.8l6.6-3.5v13.3h8.5v6.1h-8.5v18.6
		c0,3.2,1,4.1,3.5,4.1c1.8,0,3.7-0.7,5-1.4L564.1,242.8L564.1,242.8z"/>
	<path d="M574.3,243.6v-34.2h6.7v34.2H574.3L574.3,243.6z M577.7,204.9c-2.4,0-4.4-2-4.4-4.3c0-2.4,2-4.4,4.4-4.4
		c2.3,0,4.3,2,4.3,4.4C582,203,580,204.9,577.7,204.9L577.7,204.9z"/>
	<path d="M604.6,215.1c-5.1,0-8.2,4.5-8.2,11.3c0,7.5,3.5,11.6,8.5,11.6c5.1,0,8.4-5.2,8.4-11.4C613.3,219.6,610,215.1,604.6,215.1
		L604.6,215.1z M604.7,244.3c-8.6,0-15.1-7.1-15.1-17.8c0-11.2,6.7-17.9,15.3-17.9c8.7,0,15.3,7,15.3,17.7
		C620.1,237.7,613.5,244.3,604.7,244.3L604.7,244.3z"/>
	<path d="M649.2,243.6v-19.4c0-6.9-2.6-9.4-7-9.4c-4.5,0-7,3.2-7,8.7v20h-6.7v-34.2h6.7v3.3c1.7-2.5,5.1-4,8.6-4
		c8,0,12.2,5.2,12.2,15.3v19.6H649.2L649.2,243.6z"/>
</g>
<g>
	<path d="M338.8,22.7h-10.2V36h9.9c5.5,0,7.6-2.4,7.6-6.8C346.2,25.4,344.1,22.7,338.8,22.7L338.8,22.7z M345.3,69.8l-9.9-20.5h-6.8
		v20.5H312V9h27.2c14.3,0,23.7,5.4,23.7,19.8c0,9.1-4.3,14.8-10.9,17.8l12.2,23.2H345.3L345.3,69.8z"/>
	<polygon points="376.9,69.8 376.9,9 423.4,9 423.4,23.1 393.5,23.1 393.5,31.2 411.5,31.2 411.5,45.2 393.5,45.2 393.5,55.6 
		424,55.6 424,69.8 376.9,69.8 	"/>
	<path d="M458.6,23.4h-4.2v32h3.6c10.5,0,14.6-4,14.6-16.1C472.7,28.1,469.1,23.4,458.6,23.4L458.6,23.4z M457.1,69.8h-19.7V9h21.3
		C477.8,9,490,16.2,490,39C490,61.9,478.7,69.8,457.1,69.8L457.1,69.8z"/>
	<polygon points="570.2,69.8 570.2,45.8 551.3,45.8 551.3,69.8 534.1,69.8 534.1,9 551.3,9 551.3,31.1 570.2,31.1 570.2,9 587.4,9 
		587.4,69.8 570.2,69.8 	"/>
	<path d="M633.1,41.7c-2.2-7.8-3.1-11.1-3.9-15.2c-0.8,4.1-1.7,7.5-3.9,15.2l-1.1,4h10.1L633.1,41.7L633.1,41.7z M641.6,69.8
		l-3.3-10.7h-18.2l-3.3,10.7h-18.1L620.8,9h17l22.1,60.8H641.6L641.6,69.8z"/>
	<polygon points="694.3,23.7 694.3,69.8 677.4,69.8 677.4,23.7 660.4,23.7 660.4,9 711.3,9 711.3,23.7 694.3,23.7 	"/>
	<path d="M727.4,13.4h-2.3v2.4h2.3c0.8,0,1.4-0.4,1.4-1.2C728.8,13.8,728.2,13.4,727.4,13.4L727.4,13.4z M728.4,17.1l1.8,3.5h-1.7
		l-1.7-3.3h-1.7v3.3h-1.5V12h3.8c1.5,0,2.8,0.8,2.8,2.6C730.2,15.9,729.5,16.8,728.4,17.1L728.4,17.1z M726.7,9.8
		c-3.7,0-6.6,2.8-6.6,6.6c0,3.7,2.8,6.6,6.6,6.6c3.7,0,6.6-2.8,6.6-6.6C733.2,12.7,730.4,9.8,726.7,9.8L726.7,9.8z M726.7,24.2
		c-4.5,0-7.8-3.4-7.8-7.8c0-4.5,3.4-7.8,7.8-7.8c4.5,0,7.8,3.4,7.8,7.8C734.5,20.9,731.1,24.2,726.7,24.2L726.7,24.2z"/>
	<path d="M349.8,116c-2.1-6-4.7-14.2-5.6-18c-0.9,3.6-3.5,11.9-5.7,18.2l-10,29.7h31.4L349.8,116L349.8,116z M370.8,178.4l-7.8-23.2
		h-37.7l-8,23.2h-10.4l31.7-91.2h11.2l31.7,91.2H370.8L370.8,178.4z"/>
	<path d="M456.6,178.4L416.7,116c-2-3.1-5.3-9.1-6.5-11.5v6.3v67.6h-9.8V87.2h9.9l39.5,63.6c2,3.1,5.3,9.1,6.5,11.5V156V87.2h9.8
		v91.2H456.6L456.6,178.4z"/>
	<path d="M515.9,179.9c-12.4,0-23.5-5.3-30.6-12.6l6.8-7.6c6.9,6.6,14.9,10.9,24.2,10.9c12.1,0,19.7-6,19.7-15.6
		c0-8.5-5.1-13.3-21.8-19.3c-19.7-7-26.3-13.4-26.3-26.6c0-14.6,11.5-23.3,28.5-23.3c12.2,0,20.1,3.6,27.8,9.8l-6.5,8
		C531,98,524.9,95,515.8,95c-12.5,0-17.7,6.3-17.7,13.4c0,7.6,3.4,11.9,21.6,18.4c20.2,7.3,26.5,14.1,26.5,27.6
		C546.1,168.8,534.9,179.9,515.9,179.9L515.9,179.9z"/>
	<polygon points="567.9,178.4 567.9,87.2 578.1,87.2 578.1,178.4 567.9,178.4 	"/>
	<path d="M635.5,134h-22.7v35.2h23.2c13.7,0,18.9-6.8,18.9-17.2C655,140.5,647.4,134,635.5,134L635.5,134z M635.7,96.5h-22.8v28.4
		h22c11.3,0,15.8-6.5,15.8-14.5C650.7,102.1,645.8,96.5,635.7,96.5L635.7,96.5z M635.4,178.4h-32.7V87.2h33.4
		c14.5,0,24.8,7.2,24.8,22.8c0,10-5.5,15.9-13.2,18.6c8.3,2.2,17.5,8.1,17.5,22.8C665.1,169.4,654.6,178.4,635.4,178.4L635.4,178.4z
		"/>
	<polygon points="684.3,178.4 684.3,87.2 694.5,87.2 694.5,169.2 739.6,169.2 739.6,178.4 684.3,178.4 	"/>
	<polygon points="759.3,178.4 759.3,87.2 814.4,87.2 814.4,96.5 769.4,96.5 769.4,125.1 795.5,125.1 795.5,134.4 769.4,134.4 
		769.4,169.2 816.3,169.2 816.3,178.4 759.3,178.4 	"/>
	<path d="M833.6,91.8h-2.3v2.4h2.3c0.8,0,1.4-0.4,1.4-1.2C835,92.2,834.4,91.8,833.6,91.8L833.6,91.8z M834.6,95.5l1.8,3.5h-1.7
		l-1.7-3.3h-1.7v3.3h-1.5v-8.6h3.8c1.5,0,2.8,0.8,2.8,2.6C836.4,94.3,835.7,95.1,834.6,95.5L834.6,95.5z M832.9,88.2
		c-3.7,0-6.6,2.8-6.6,6.6c0,3.7,2.8,6.6,6.6,6.6c3.7,0,6.6-2.8,6.6-6.6C839.4,91.1,836.6,88.2,832.9,88.2L832.9,88.2z M832.9,102.6
		c-4.5,0-7.8-3.4-7.8-7.8c0-4.5,3.4-7.8,7.8-7.8c4.5,0,7.8,3.4,7.8,7.8C840.7,99.2,837.3,102.6,832.9,102.6L832.9,102.6z"/>
	<path d="M332.6,216.2c-1.1-3.3-2.9-8.5-3.5-10.5c-0.5,2-2.2,7.2-3.3,10.6l-3.6,10.4h14.1L332.6,216.2L332.6,216.2z M342.1,243.6
		l-3.8-10.8H320l-3.8,10.8h-7.1l16.4-45.6h7.2l16.6,45.6H342.1L342.1,243.6z"/>
	<path d="M377,243.6v-3.3c-1.7,2.5-5.1,4-8.6,4c-8,0-12.2-5.2-12.2-15.3v-19.6h6.7v19.4c0,6.9,2.6,9.4,7,9.4c4.5,0,7-3.2,7-8.7v-20
		h6.7v34.2H377L377,243.6z"/>
	<path d="M410,242.8c-1.6,0.9-3.9,1.6-6.6,1.6c-4.8,0-7.7-2.9-7.7-9.1v-19.8h-4.9v-6.1h4.9v-9.8l6.6-3.5v13.3h8.5v6.1h-8.5v18.6
		c0,3.2,1,4.1,3.5,4.1c1.8,0,3.7-0.7,5-1.4L410,242.8L410,242.8z"/>
	<path d="M432,215.1c-5.1,0-8.2,4.5-8.2,11.3c0,7.5,3.5,11.6,8.5,11.6c5.1,0,8.4-5.2,8.4-11.4C440.7,219.6,437.4,215.1,432,215.1
		L432,215.1z M432,244.3c-8.6,0-15.1-7.1-15.1-17.8c0-11.2,6.7-17.9,15.3-17.9c8.7,0,15.3,7,15.3,17.7
		C447.5,237.7,440.8,244.3,432,244.3L432,244.3z"/>
	<path d="M495.5,243.6v-19.4c0-6.9-2.2-9.4-6.6-9.4c-4.5,0-6.6,3.2-6.6,8.7v20h-6.7v-19.4c0-6.9-2.1-9.4-6.6-9.4
		c-4.5,0-6.6,3.2-6.6,8.7v20h-6.7v-34.2h6.7v3.3c1.7-2.5,4.6-4,8.1-4c4.6,0,7.6,1.8,9.4,5c2.5-3.1,5.1-5,10.5-5
		c8,0,11.7,5.2,11.7,15.3v19.6H495.5L495.5,243.6z"/>
	<path d="M531.5,229c-1.8-0.9-4.2-1.5-7.8-1.5c-4.3,0-7,2-7,5.1c0,3.4,2.2,5.7,6.6,5.7c3.6,0,6.7-2.2,8.3-4.4V229L531.5,229z
		 M531.5,243.6v-3.4c-2.3,2.3-5.7,4.1-9.4,4.1c-5.5,0-11.9-3.1-11.9-11.5c0-7.6,5.9-11.1,13.6-11.1c3.2,0,5.7,0.5,7.6,1.3v-2.5
		c0-3.7-2.3-5.8-6.5-5.8c-3.5,0-6.3,0.7-8.9,2.1l-2.6-5.1c3.3-2,6.9-3.1,11.7-3.1c7.6,0,12.8,3.7,12.8,11.5v23.5H531.5L531.5,243.6z
		"/>
	<path d="M564.1,242.8c-1.6,0.9-3.9,1.6-6.6,1.6c-4.8,0-7.7-2.9-7.7-9.1v-19.8h-4.9v-6.1h4.9v-9.8l6.6-3.5v13.3h8.5v6.1h-8.5v18.6
		c0,3.2,1,4.1,3.5,4.1c1.8,0,3.7-0.7,5-1.4L564.1,242.8L564.1,242.8z"/>
	<path d="M574.3,243.6v-34.2h6.7v34.2H574.3L574.3,243.6z M577.7,204.9c-2.4,0-4.4-2-4.4-4.3c0-2.4,2-4.4,4.4-4.4
		c2.3,0,4.3,2,4.3,4.4C582,203,580,204.9,577.7,204.9L577.7,204.9z"/>
	<path d="M604.6,215.1c-5.1,0-8.2,4.5-8.2,11.3c0,7.5,3.5,11.6,8.5,11.6c5.1,0,8.4-5.2,8.4-11.4C613.3,219.6,610,215.1,604.6,215.1
		L604.6,215.1z M604.7,244.3c-8.6,0-15.1-7.1-15.1-17.8c0-11.2,6.7-17.9,15.3-17.9c8.7,0,15.3,7,15.3,17.7
		C620.1,237.7,613.5,244.3,604.7,244.3L604.7,244.3z"/>
	<path d="M649.2,243.6v-19.4c0-6.9-2.6-9.4-7-9.4c-4.5,0-7,3.2-7,8.7v20h-6.7v-34.2h6.7v3.3c1.7-2.5,5.1-4,8.6-4
		c8,0,12.2,5.2,12.2,15.3v19.6H649.2L649.2,243.6z"/>
</g>
</svg>
